<?xml version="1.0" standalone="no"?>
<!DOCTYPE svg PUBLIC "-//W3C//DTD SVG 20010904//EN"
 "http://www.w3.org/TR/2001/REC-SVG-20010904/DTD/svg10.dtd">
<svg version="1.0" xmlns="http://www.w3.org/2000/svg"
 width="768.000000pt" height="768.000000pt" viewBox="0 0 768.000000 768.000000"
 preserveAspectRatio="xMidYMid meet">

<g transform="translate(0.000000,768.000000) scale(0.100000,-0.100000)"
fill="#000000" stroke="none">
<path d="M3920 6874 c-30 -2 -93 -9 -140 -14 -47 -6 -125 -15 -173 -20 -49 -6
-140 -24 -202 -40 -62 -17 -124 -31 -137 -31 -12 -1 38 -7 112 -14 177 -16
303 -39 420 -76 52 -16 100 -29 106 -29 6 0 36 -13 67 -30 31 -16 61 -30 67
-30 6 0 33 -16 60 -35 27 -19 52 -35 54 -35 13 0 170 -118 218 -162 16 -16 32
-28 37 -28 4 0 13 -11 19 -25 11 -23 16 -25 86 -25 172 0 496 -49 636 -97 41
-14 86 -27 100 -30 14 -2 48 -15 75 -28 28 -13 71 -32 98 -44 26 -11 54 -27
63 -36 8 -8 24 -15 35 -15 10 0 19 -3 19 -8 0 -4 16 -16 35 -26 19 -11 35 -23
35 -28 0 -4 6 -8 13 -8 7 0 26 -13 42 -30 16 -16 32 -30 37 -30 10 0 148 -138
148 -149 0 -4 10 -16 21 -27 19 -17 60 -79 96 -147 31 -59 65 -158 85 -250 41
-189 20 -463 -46 -627 -14 -35 -26 -69 -26 -76 0 -7 -13 -35 -28 -61 -16 -26
-31 -55 -34 -63 -15 -39 -107 -158 -186 -239 -78 -79 -189 -171 -208 -171 -4
0 -21 -10 -38 -23 -57 -43 -309 -157 -380 -172 l-29 -6 34 -25 c18 -13 39 -24
46 -24 7 0 13 -4 13 -8 0 -4 13 -16 30 -25 45 -27 160 -128 160 -141 0 -6 9
-17 20 -23 10 -7 36 -39 57 -71 118 -180 171 -372 160 -582 -5 -119 -45 -308
-87 -420 -15 -41 -31 -86 -35 -100 -4 -14 -15 -39 -25 -56 -12 -22 -20 -65
-25 -140 -6 -88 -14 -125 -40 -194 -37 -97 -95 -203 -131 -241 -13 -14 -24
-29 -24 -35 0 -5 -8 -17 -17 -25 -10 -9 -41 -41 -70 -73 -28 -31 -56 -56 -61
-56 -6 0 -19 -11 -29 -23 -10 -13 -52 -45 -93 -72 -41 -26 -87 -56 -102 -66
-15 -11 -32 -19 -37 -19 -6 0 -33 -13 -59 -30 -27 -16 -53 -30 -57 -30 -4 0
-46 -15 -94 -33 -207 -80 -457 -143 -633 -159 -62 -6 -207 -8 -323 -5 -185 5
-222 9 -310 33 -55 14 -117 30 -139 35 -43 11 -94 32 -206 87 -81 39 -138 77
-202 133 l-41 36 -281 6 c-155 4 -380 11 -501 16 -121 5 -360 13 -532 17 -345
8 -316 1 -281 67 95 180 215 427 234 482 30 87 30 127 2 165 -31 43 -68 50
-215 39 -281 -19 -413 -22 -413 -11 0 6 11 36 25 66 14 30 31 81 40 113 8 32
26 94 39 138 14 44 39 127 56 185 17 58 44 146 60 196 17 51 30 98 30 105 0
14 23 93 91 309 18 58 38 128 45 155 13 57 41 155 85 296 16 52 29 103 29 113
0 10 13 59 29 109 35 110 69 232 87 307 7 30 22 87 34 125 12 39 28 98 36 132
8 34 25 97 39 140 14 43 25 87 25 98 0 10 13 64 29 120 16 55 39 141 51 190
39 154 45 173 62 192 8 10 22 32 31 48 8 17 29 45 46 64 17 19 31 37 31 40 0
11 135 146 213 214 87 76 224 171 314 218 23 12 30 10 258 -61 50 -16 101 -31
115 -33 14 -3 59 -16 100 -30 89 -30 258 -81 318 -97 38 -10 129 -76 214 -155
15 -14 31 -25 37 -25 5 0 18 -10 28 -23 10 -12 31 -30 46 -40 32 -21 42 -14
72 43 26 50 25 187 -1 220 -44 55 -182 170 -204 170 -6 0 -32 16 -59 35 -26
19 -53 35 -59 35 -6 0 -30 13 -54 28 -24 16 -58 34 -75 42 -18 7 -33 13 -33
14 0 1 -9 26 -20 56 -27 74 -26 84 18 112 67 45 149 58 356 58 186 0 258 -9
360 -44 30 -10 47 -11 75 -2 37 11 496 14 558 4 30 -6 32 -5 23 13 -6 10 -15
19 -20 19 -6 0 -27 16 -49 35 -21 19 -44 35 -50 35 -6 0 -11 4 -11 9 0 12
-148 111 -166 111 -8 0 -14 3 -14 8 0 16 -245 122 -282 122 -9 0 -61 11 -115
25 -115 28 -179 35 -368 38 -297 5 -507 -21 -735 -94 -52 -16 -99 -29 -103
-29 -5 0 -41 -16 -80 -35 -39 -19 -74 -35 -79 -35 -9 0 -130 -85 -174 -122
-68 -57 -174 -163 -174 -175 0 -7 -4 -13 -9 -13 -6 0 -42 -39 -82 -87 -39 -49
-76 -89 -80 -91 -5 -2 -9 -10 -9 -17 0 -7 -10 -26 -23 -42 -62 -74 -159 -309
-171 -413 -22 -175 -16 -289 13 -282 8 1 10 -4 7 -16 -4 -10 -12 -40 -20 -68
-7 -27 -23 -77 -35 -111 -55 -164 -64 -191 -76 -238 -7 -27 -26 -88 -42 -135
-16 -47 -44 -132 -63 -190 -34 -110 -72 -231 -122 -390 -17 -52 -44 -138 -60
-190 -17 -52 -44 -135 -61 -185 -17 -49 -34 -106 -38 -125 -4 -19 -19 -71 -34
-115 -15 -44 -38 -114 -52 -155 -14 -41 -29 -94 -34 -116 -4 -23 -19 -70 -34
-105 -14 -34 -25 -70 -25 -79 0 -9 -12 -50 -26 -91 -15 -41 -32 -96 -39 -124
-7 -27 -24 -84 -38 -125 -14 -41 -40 -122 -57 -180 -45 -144 -42 -138 -95
-208 -72 -95 -73 -139 -6 -252 5 -8 20 -36 32 -62 13 -27 27 -48 31 -48 5 0 8
-8 8 -18 0 -10 6 -27 14 -38 17 -25 99 -189 147 -294 18 -41 40 -81 49 -88 8
-7 22 -19 31 -26 9 -8 27 -18 40 -22 39 -13 791 0 1219 21 l115 6 64 -43 c73
-49 126 -82 159 -99 12 -7 22 -16 22 -21 0 -4 9 -8 19 -8 11 0 23 -5 26 -10 8
-13 331 -170 349 -170 7 0 36 -11 65 -25 28 -14 75 -32 104 -39 29 -8 81 -24
117 -36 36 -12 85 -25 110 -29 25 -5 99 -20 165 -34 220 -47 608 -59 921 -28
203 20 577 120 769 206 145 65 373 183 405 208 8 7 28 19 43 27 16 8 40 25 53
37 14 13 29 23 34 23 5 0 25 13 43 30 19 16 39 30 45 30 6 0 12 4 14 8 2 4 37
34 78 67 79 61 96 77 223 203 99 97 120 120 193 208 101 122 124 152 124 160
0 3 14 22 30 41 17 18 30 40 30 48 0 7 4 15 8 17 10 4 51 62 75 107 11 20 32
59 48 86 34 62 119 233 119 242 0 3 14 35 30 70 17 34 30 69 30 76 0 7 16 50
35 96 19 45 35 90 35 98 0 9 13 64 29 122 29 107 35 141 71 376 22 145 28 490
10 645 -13 123 -48 310 -76 420 -14 52 -29 113 -34 136 -5 22 -22 75 -39 117
-17 43 -31 82 -31 87 0 5 -13 39 -30 75 -16 36 -30 71 -30 77 0 6 -13 33 -30
60 -17 26 -30 52 -30 57 0 10 -79 159 -92 176 -16 19 -78 120 -93 153 -8 17
-19 32 -23 32 -4 0 -25 27 -47 60 -22 33 -43 60 -47 60 -5 0 -8 5 -8 11 0 11
-10 24 -121 150 -118 133 -325 330 -355 337 -8 2 -14 7 -14 12 0 9 -147 120
-159 120 -4 0 -16 9 -26 20 -25 27 -180 118 -370 217 -69 36 -152 73 -162 73
-7 0 -36 11 -65 25 -29 14 -75 31 -103 39 -27 8 -77 23 -110 34 -141 46 -326
85 -506 106 -140 17 -401 27 -499 20z m-2590 -4656 c0 -11 -48 -126 -77 -183
-8 -16 -21 -41 -28 -55 -7 -14 -32 -63 -55 -110 -24 -47 -54 -102 -67 -122
-13 -21 -23 -42 -23 -47 0 -5 -14 -33 -32 -60 l-31 -51 -29 50 c-15 27 -28 54
-28 60 0 5 -26 63 -59 127 -32 65 -88 179 -124 253 l-66 135 222 5 c122 3 261
7 310 8 61 1 87 -1 87 -10z"/>
<path d="M3205 6300 c-33 -6 -64 -12 -70 -14 -5 -2 94 -4 220 -4 160 0 219 3
195 9 -52 14 -276 19 -345 9z"/>
<path d="M3543 4889 c-17 -17 -16 -54 1 -68 20 -16 1313 -36 1332 -20 17 14
18 53 2 67 -14 10 -259 18 -923 28 -322 5 -402 3 -412 -7z"/>
<path d="M2083 4359 c-7 -7 -13 -26 -13 -41 0 -21 6 -29 23 -32 12 -3 268 -8
570 -11 301 -4 557 -8 570 -10 12 -2 198 -6 412 -9 447 -7 815 -15 961 -21
116 -5 138 3 132 50 -2 22 -10 30 -31 36 -15 4 -287 10 -605 13 -317 4 -667 8
-777 11 -110 3 -339 7 -510 10 -170 3 -402 8 -515 11 -158 4 -208 2 -217 -7z"/>
<path d="M1954 3812 c-42 -8 -52 -62 -14 -82 10 -5 201 -9 441 -10 233 0 483
-2 554 -5 72 -3 234 -7 360 -10 127 -2 456 -10 733 -16 276 -6 514 -8 527 -5
39 10 45 66 8 81 -9 3 -210 8 -447 10 -384 5 -693 10 -1827 34 -174 3 -325 4
-335 3z"/>
<path d="M1782 3252 c-8 -5 -12 -23 -10 -43 l3 -34 110 -6 c61 -4 378 -9 705
-13 327 -3 692 -8 810 -11 118 -3 341 -7 495 -10 154 -3 328 -8 387 -11 134
-7 148 -3 148 41 0 23 -6 38 -19 44 -11 6 -180 10 -437 11 -230 0 -498 2 -594
5 -96 3 -382 10 -635 15 -253 5 -570 12 -705 15 -141 4 -251 2 -258 -3z"/>
<path d="M1623 2689 c-18 -18 -16 -43 5 -61 17 -15 200 -20 1747 -43 176 -3
446 -8 600 -11 274 -7 280 -6 298 14 15 16 16 24 7 41 -9 18 -20 21 -73 21
-34 0 -240 5 -457 10 -217 5 -548 11 -735 15 -187 3 -374 7 -415 10 -41 2
-275 7 -520 11 -360 5 -447 4 -457 -7z"/>
<path d="M3744 2363 c-41 -51 -50 -70 -57 -120 -9 -72 6 -111 65 -167 143
-136 290 -271 298 -274 18 -7 10 -37 -18 -72 -16 -19 -34 -45 -41 -57 -6 -13
-17 -23 -23 -23 -6 0 -33 -13 -60 -30 -26 -16 -54 -30 -61 -30 -8 0 -42 -12
-77 -26 -69 -28 -264 -64 -350 -64 -30 0 -82 7 -115 15 -42 10 -122 14 -270
15 l-210 0 32 -30 c18 -17 35 -30 39 -30 4 0 31 -16 60 -35 29 -19 57 -35 63
-35 5 0 36 -13 68 -29 70 -35 239 -91 273 -91 14 0 59 -8 100 -17 54 -12 127
-17 265 -17 203 -1 355 16 510 56 44 12 105 27 135 34 63 15 231 73 293 102
23 11 62 29 87 41 61 28 151 79 170 96 9 8 21 15 26 15 6 0 23 14 39 30 16 17
33 30 37 30 17 0 208 201 208 218 0 6 7 17 15 26 9 8 37 57 63 108 53 103 86
236 80 323 l-3 50 -17 -31 c-17 -31 -28 -46 -98 -126 -37 -43 -46 -52 -107
-106 -61 -53 -66 -57 -118 -92 -27 -19 -52 -37 -55 -40 -3 -4 -15 -10 -27 -14
-13 -4 -29 -13 -35 -20 -18 -17 -184 -99 -234 -115 -41 -13 -43 -13 -155 43
-63 30 -130 64 -149 74 -19 11 -66 34 -105 52 -93 44 -139 66 -236 116 -41 21
-77 53 -134 119 -43 50 -87 99 -97 110 -10 11 -24 28 -31 38 -12 17 -15 16
-43 -20z"/>
</g>
</svg>
